<svg width="1218" height="459" viewBox="0 0 1218 459" fill="none" xmlns="http://www.w3.org/2000/svg">
<g clip-path="url(#clip0_307_41)">
<rect width="1218" height="459" fill="black"/>
<path d="M553.193 323.058V327.184C553.193 334.209 552.22 340.514 550.273 346.1C548.369 351.686 545.639 356.447 542.084 360.382C538.572 364.318 534.383 367.343 529.516 369.459C524.692 371.533 519.339 372.57 513.457 372.57C507.574 372.57 502.2 371.533 497.333 369.459C492.467 367.343 488.235 364.318 484.638 360.382C481.083 356.447 478.333 351.686 476.386 346.1C474.44 340.514 473.466 334.209 473.466 327.184V323.058C473.466 316.033 474.44 309.728 476.386 304.142C478.333 298.514 481.062 293.732 484.575 289.796C488.129 285.861 492.34 282.856 497.207 280.782C502.073 278.667 507.447 277.609 513.33 277.609C519.212 277.609 524.586 278.667 529.453 280.782C534.319 282.856 538.509 285.861 542.021 289.796C545.576 293.732 548.326 298.514 550.273 304.142C552.22 309.728 553.193 316.033 553.193 323.058ZM532.309 327.184V322.931C532.309 318.234 531.886 314.087 531.04 310.49C530.193 306.85 528.966 303.803 527.358 301.349C525.75 298.894 523.761 297.054 521.391 295.826C519.021 294.557 516.334 293.922 513.33 293.922C510.198 293.922 507.469 294.557 505.141 295.826C502.814 297.054 500.846 298.894 499.238 301.349C497.672 303.803 496.466 306.85 495.62 310.49C494.816 314.087 494.414 318.234 494.414 322.931V327.184C494.414 331.839 494.816 335.986 495.62 339.625C496.466 343.222 497.693 346.269 499.301 348.766C500.909 351.263 502.877 353.146 505.205 354.415C507.574 355.685 510.325 356.32 513.457 356.32C516.461 356.32 519.127 355.685 521.455 354.415C523.824 353.146 525.813 351.263 527.421 348.766C529.029 346.269 530.236 343.222 531.04 339.625C531.886 335.986 532.309 331.839 532.309 327.184ZM642.124 278.878V371.3H621.494L586.582 311.569V371.3H565.888V278.878H586.582L621.557 338.61V278.878H642.124ZM679.448 278.878V371.3H658.818V278.878H679.448ZM737.275 278.878V371.3H716.645V278.878H737.275ZM765.395 278.878V294.938H689.096V278.878H765.395ZM850.898 323.058V327.184C850.898 334.209 849.925 340.514 847.978 346.1C846.074 351.686 843.344 356.447 839.79 360.382C836.277 364.318 832.088 367.343 827.221 369.459C822.397 371.533 817.044 372.57 811.162 372.57C805.279 372.57 799.905 371.533 795.039 369.459C790.172 367.343 785.94 364.318 782.343 360.382C778.789 356.447 776.038 351.686 774.091 346.1C772.145 340.514 771.171 334.209 771.171 327.184V323.058C771.171 316.033 772.145 309.728 774.091 304.142C776.038 298.514 778.767 293.732 782.28 289.796C785.834 285.861 790.045 282.856 794.912 280.782C799.778 278.667 805.153 277.609 811.035 277.609C816.917 277.609 822.291 278.667 827.158 280.782C832.024 282.856 836.214 285.861 839.726 289.796C843.281 293.732 846.031 298.514 847.978 304.142C849.925 309.728 850.898 316.033 850.898 323.058ZM830.014 327.184V322.931C830.014 318.234 829.591 314.087 828.745 310.49C827.898 306.85 826.671 303.803 825.063 301.349C823.455 298.894 821.466 297.054 819.096 295.826C816.726 294.557 814.039 293.922 811.035 293.922C807.903 293.922 805.174 294.557 802.846 295.826C800.519 297.054 798.551 298.894 796.943 301.349C795.377 303.803 794.171 306.85 793.325 310.49C792.521 314.087 792.119 318.234 792.119 322.931V327.184C792.119 331.839 792.521 335.986 793.325 339.625C794.171 343.222 795.398 346.269 797.006 348.766C798.614 351.263 800.582 353.146 802.91 354.415C805.279 355.685 808.03 356.32 811.162 356.32C814.166 356.32 816.832 355.685 819.16 354.415C821.529 353.146 823.518 351.263 825.126 348.766C826.735 346.269 827.941 343.222 828.745 339.625C829.591 335.986 830.014 331.839 830.014 327.184ZM863.593 278.878H899.077C906.144 278.878 912.259 279.936 917.421 282.052C922.626 284.168 926.625 287.299 929.418 291.447C932.211 295.594 933.608 300.714 933.608 306.808C933.608 311.886 932.783 316.202 931.132 319.757C929.482 323.312 927.154 326.253 924.15 328.58C921.188 330.908 917.718 332.791 913.74 334.23L907.011 337.911H876.796L876.669 321.852H899.14C902.229 321.852 904.79 321.302 906.821 320.201C908.852 319.101 910.375 317.557 911.391 315.568C912.449 313.536 912.978 311.167 912.978 308.458C912.978 305.665 912.449 303.253 911.391 301.222C910.333 299.191 908.767 297.646 906.694 296.588C904.663 295.488 902.124 294.938 899.077 294.938H884.287V371.3H863.593V278.878ZM914.755 371.3L893.999 330.231L915.834 330.167L936.909 370.348V371.3H914.755ZM969.663 278.878V371.3H949.033V278.878H969.663ZM1062.59 278.878V371.3H1041.96L1007.05 311.569V371.3H986.357V278.878H1007.05L1042.03 338.61V278.878H1062.59ZM1152.35 322.487V359.747C1150.82 361.482 1148.5 363.344 1145.37 365.333C1142.28 367.322 1138.32 369.036 1133.5 370.475C1128.67 371.871 1122.92 372.57 1116.23 372.57C1110.18 372.57 1104.68 371.596 1099.73 369.65C1094.77 367.661 1090.52 364.762 1086.97 360.953C1083.41 357.102 1080.66 352.405 1078.72 346.862C1076.81 341.318 1075.86 334.97 1075.86 327.819V322.36C1075.86 315.208 1076.81 308.86 1078.72 303.317C1080.62 297.773 1083.31 293.097 1086.78 289.288C1090.25 285.437 1094.37 282.517 1099.15 280.529C1103.94 278.54 1109.23 277.545 1115.02 277.545C1123.28 277.545 1130.03 278.878 1135.27 281.544C1140.52 284.168 1144.5 287.807 1147.21 292.462C1149.96 297.117 1151.65 302.47 1152.28 308.522H1132.35C1131.93 305.433 1131.08 302.767 1129.81 300.524C1128.59 298.281 1126.83 296.567 1124.55 295.382C1122.26 294.155 1119.3 293.541 1115.66 293.541C1112.74 293.541 1110.09 294.155 1107.72 295.382C1105.4 296.567 1103.43 298.365 1101.82 300.778C1100.21 303.19 1098.99 306.194 1098.14 309.791C1097.29 313.346 1096.87 317.493 1096.87 322.233V327.819C1096.87 332.558 1097.29 336.726 1098.14 340.323C1099.03 343.92 1100.32 346.925 1102.01 349.337C1103.7 351.707 1105.84 353.505 1108.42 354.733C1111.05 355.96 1114.09 356.573 1117.56 356.573C1120.27 356.573 1122.56 356.362 1124.42 355.939C1126.28 355.473 1127.8 354.902 1128.99 354.225C1130.17 353.505 1131.06 352.85 1131.65 352.257V336.896H1115.21V322.487H1152.35Z" fill="#93FC03"/>
<path d="M435.019 140.433V229.3H415.182V140.433H435.019ZM497.152 205.863C497.152 204.357 496.929 203.014 496.481 201.834C496.033 200.614 495.22 199.495 494.04 198.477C492.86 197.46 491.191 196.443 489.035 195.426C486.878 194.368 484.05 193.289 480.551 192.191C476.563 190.889 472.759 189.424 469.137 187.796C465.556 186.128 462.362 184.195 459.555 181.998C456.747 179.801 454.529 177.237 452.902 174.307C451.315 171.378 450.521 167.96 450.521 164.053C450.521 160.269 451.356 156.851 453.024 153.8C454.692 150.748 457.032 148.144 460.043 145.987C463.054 143.79 466.594 142.122 470.663 140.982C474.732 139.802 479.208 139.212 484.091 139.212C490.601 139.212 496.318 140.372 501.242 142.691C506.206 144.97 510.071 148.184 512.838 152.335C515.605 156.444 516.989 161.226 516.989 166.678H497.213C497.213 164.277 496.705 162.161 495.688 160.33C494.711 158.459 493.205 156.994 491.171 155.936C489.177 154.878 486.675 154.349 483.664 154.349C480.734 154.349 478.272 154.796 476.278 155.692C474.325 156.546 472.84 157.726 471.823 159.232C470.846 160.737 470.358 162.385 470.358 164.176C470.358 165.6 470.724 166.902 471.457 168.082C472.23 169.221 473.328 170.299 474.752 171.317C476.217 172.293 478.008 173.229 480.124 174.124C482.239 175.019 484.66 175.874 487.387 176.688C492.147 178.193 496.359 179.862 500.021 181.693C503.724 183.524 506.837 185.599 509.359 187.918C511.882 190.238 513.774 192.862 515.036 195.792C516.338 198.721 516.989 202.038 516.989 205.74C516.989 209.687 516.216 213.187 514.669 216.239C513.164 219.29 510.967 221.894 508.078 224.051C505.229 226.167 501.811 227.774 497.824 228.873C493.836 229.971 489.381 230.521 484.457 230.521C479.981 230.521 475.566 229.951 471.212 228.812C466.859 227.632 462.912 225.841 459.372 223.441C455.872 221.04 453.065 217.988 450.949 214.285C448.874 210.542 447.836 206.107 447.836 200.98H467.733C467.733 203.665 468.12 205.944 468.893 207.816C469.666 209.647 470.765 211.132 472.189 212.271C473.654 213.411 475.424 214.224 477.499 214.713C479.574 215.201 481.894 215.445 484.457 215.445C487.427 215.445 489.828 215.038 491.659 214.224C493.531 213.37 494.914 212.21 495.81 210.745C496.705 209.281 497.152 207.653 497.152 205.863ZM565.634 157.34L542.685 229.3H521.444L554.342 140.433H567.77L565.634 157.34ZM584.677 229.3L561.667 157.34L559.286 140.433H572.897L605.917 229.3H584.677ZM583.7 196.219V211.6H537.375V196.219H583.7ZM647.238 140.433V229.3H627.401V140.433H647.238ZM674.276 140.433V155.875H600.912V140.433H674.276ZM714.071 157.34L691.122 229.3H669.882L702.78 140.433H716.208L714.071 157.34ZM733.114 229.3L710.104 157.34L707.724 140.433H721.334L754.354 229.3H733.114ZM732.138 196.219V211.6H685.812V196.219H732.138Z" fill="#FEF302"/>
<path d="M113.365 408.794C77.789 361.224 60.6608 302.104 65.2231 242.612C69.7855 183.12 95.7214 127.386 138.122 85.9474C180.522 44.509 236.447 20.2376 295.321 17.7177C354.195 15.1979 411.943 34.6039 457.646 72.2706" stroke="url(#paint0_linear_307_41)" stroke-width="3"/>
<path d="M141.515 430.299C199.015 430.3 223.015 352.799 275.515 225.799" stroke="#93FC03" stroke-width="3"/>
<circle cx="130.015" cy="412.799" r="23.5" fill="#93FC03"/>
<path d="M293.515 400.799H303.515L323.986 353.299L276.515 223.299L252.015 283.299L293.515 400.799Z" fill="#93FC03"/>
<path d="M380.015 396.299H430.515L380.015 223.299L354.155 283.299L348.984 295.299L380.015 396.299Z" fill="#93FC03"/>
<path d="M456.515 396.299H430.515M356.515 396.299H380.015M380.015 396.299H430.515M380.015 396.299L348.984 295.299M430.515 396.299L380.015 223.299L354.155 283.299L348.984 295.299M348.984 295.299L323.986 353.299M323.986 353.299L303.515 400.799H293.515L252.015 283.299L276.515 223.299L323.986 353.299Z" stroke="#93FC03" stroke-width="3"/>
<line x1="356.515" y1="399.799" x2="456.515" y2="399.799" stroke="#93FC03" stroke-width="7"/>
<path d="M456.515 68.3003C399.015 68.2992 375.015 145.8 322.515 272.8" stroke="#FEF302" stroke-width="3"/>
<circle cx="468.015" cy="85.8003" r="23.5" transform="rotate(-180 468.015 85.8003)" fill="#FEF302"/>
<path d="M218.015 102.3H167.515L218.015 275.3L243.874 215.3L249.046 203.3L218.015 102.3Z" fill="#FEF302"/>
<path d="M304.515 97.8003H294.515L274.043 145.3L321.515 275.3L346.015 215.3L304.515 97.8003Z" fill="#FEF302"/>
<path d="M141.515 102.3H167.515M241.515 102.3H218.015M218.015 102.3H167.515M218.015 102.3L249.046 203.3M167.515 102.3L218.015 275.3L243.874 215.3L249.046 203.3M249.046 203.3L274.043 145.3M274.043 145.3L294.515 97.8003H304.515L346.015 215.3L321.515 275.3L274.043 145.3Z" stroke="#FEF302" stroke-width="3"/>
<line x1="141.515" y1="98.8003" x2="241.515" y2="98.8003" stroke="#FEF302" stroke-width="7"/>
</g>
<defs>
<linearGradient id="paint0_linear_307_41" x1="305.5" y1="16" x2="305.5" y2="507" gradientUnits="userSpaceOnUse">
<stop stop-color="#93FC03"/>
<stop offset="0.180114" stop-color="#C5F803"/>
<stop offset="1" stop-color="#FEF302"/>
</linearGradient>
<clipPath id="clip0_307_41">
<rect width="1218" height="459" fill="white"/>
</clipPath>
</defs>
</svg>
