<svg width="498" height="498" viewBox="0 0 498 498" fill="none" xmlns="http://www.w3.org/2000/svg">
<circle cx="248.5" cy="248.5" r="238.5" fill="black"/>
<path d="M403.055 66.8545C354.879 25.8641 292.394 5.69005 229.344 10.7705C166.294 15.851 107.845 45.7698 66.8546 93.9452C25.8641 142.121 5.69006 204.606 10.7705 267.656C15.851 330.706 45.7698 389.155 93.9452 430.145" stroke="url(#paint0_linear_340_42)" stroke-width="3"/>
<path d="M403.055 66.8545C426.909 87.151 446.532 111.947 460.803 139.827C475.074 167.707 483.714 198.125 486.229 229.344C488.745 260.563 485.087 291.972 475.464 321.777C465.841 351.583 450.442 379.201 430.145 403.055C409.849 426.909 385.053 446.532 357.173 460.803C329.293 475.074 298.875 483.714 267.656 486.229C236.437 488.745 205.028 485.087 175.223 475.464C145.417 465.841 117.799 450.442 93.9451 430.145" stroke="url(#paint1_linear_340_42)" stroke-width="3"/>
<path d="M92 429.999C149.5 430 173.5 352.499 226 225.499" stroke="#93FC03" stroke-width="3"/>
<circle cx="80.5" cy="412.499" r="23.5" fill="#93FC03"/>
<path d="M244 400.499H254L274.472 352.999L227 222.999L202.5 282.999L244 400.499Z" fill="#93FC03"/>
<path d="M330.5 395.999H381L330.5 222.999L304.641 282.999L299.469 294.999L330.5 395.999Z" fill="#93FC03"/>
<path d="M407 395.999H381M307 395.999H330.5M330.5 395.999H381M330.5 395.999L299.469 294.999M381 395.999L330.5 222.999L304.641 282.999L299.469 294.999M299.469 294.999L274.472 352.999M274.472 352.999L254 400.499H244L202.5 282.999L227 222.999L274.472 352.999Z" stroke="#93FC03" stroke-width="3"/>
<line x1="307" y1="399.499" x2="407" y2="399.499" stroke="#93FC03" stroke-width="7"/>
<path d="M407 68C349.5 67.9989 325.5 145.5 273 272.5" stroke="#FEF302" stroke-width="3"/>
<circle cx="418.5" cy="85.5" r="23.5" transform="rotate(-180 418.5 85.5)" fill="#FEF302"/>
<path d="M168.5 102H118L168.5 275L194.359 215L199.531 203L168.5 102Z" fill="#FEF302"/>
<path d="M255 97.5H245L224.528 145L272 275L296.5 215L255 97.5Z" fill="#FEF302"/>
<path d="M92 102H118M192 102H168.5M168.5 102H118M168.5 102L199.531 203M118 102L168.5 275L194.359 215L199.531 203M199.531 203L224.528 145M224.528 145L245 97.5H255L296.5 215L272 275L224.528 145Z" stroke="#FEF302" stroke-width="3"/>
<line x1="92" y1="98.5" x2="192" y2="98.5" stroke="#FEF302" stroke-width="7"/>
<defs>
<linearGradient id="paint0_linear_340_42" x1="248.5" y1="10" x2="248.5" y2="487" gradientUnits="userSpaceOnUse">
<stop stop-color="#93FC03"/>
<stop offset="0.293531" stop-color="#FEF302"/>
</linearGradient>
<linearGradient id="paint1_linear_340_42" x1="248.5" y1="10" x2="248.5" y2="487" gradientUnits="userSpaceOnUse">
<stop offset="0.438017" stop-color="#93FC03"/>
<stop offset="1" stop-color="#FEF302"/>
</linearGradient>
</defs>
</svg>
